<svg xmlns="http://www.w3.org/2000/svg" viewBox="0 0 250 250" style="enable-background:new 0 0 250 250" xml:space="preserve"><path style="fill:#3d3393" d="M0 0h250v250H0z"/><path d="M185.8 186.4H63l-.4-2.6c-1.9-8.9 1.1-18.2 8-24.2 5.5-4.7 11.9-8.3 18.7-10.7 4.4-1.6 8.6-3.4 12.7-5.5 3-1.6 3.8-2.8 4-3.5s0-2.1-2-4.8c-5.8-7.6-9.7-16.5-11.3-26-2.2-10.6-.5-21.7 4.8-31.2 5.7-10.7 17.2-16.9 29.2-15.7 11.4.6 21.4 7.6 25.8 18.2 7 15.4 5.7 33.3-3.2 47.7-1.1 1.9-2.2 3.7-3.5 5.5-.7 1-1.4 2-2 3-.8 1-1.2 2.3-1.2 3.6.2.9 1.3 1.6 2.2 2.1 4.7 2.6 9.7 4.9 14.7 6.8 8.3 2.8 15.8 7.7 21.8 14.2 4.5 5.8 6.4 13.3 5 20.5l-.5 2.6zM68.4 180h111.7c.5-4.7-.9-9.4-3.8-13-5.3-5.7-11.9-9.9-19.3-12.4-5.3-2-10.4-4.5-15.4-7.2-2.5-1.2-4.4-3.4-5.2-6-.6-3 .2-6 2-8.4.7-1.1 1.4-2.1 2.2-3.2 1.1-1.5 2.2-3.1 3.1-4.8 7.9-12.6 9.1-28.4 3-42-3.4-8.5-11.4-14.2-20.5-14.6-9.7-1-19 4-23.4 12.6-4.5 8.3-6 17.9-4 27.1 1.5 8.5 5 16.4 10.2 23.2 2.4 2.7 3.6 6.4 3.2 10-1.2 3.4-3.8 6.2-7.1 7.6-4.3 2.3-8.8 4.3-13.4 6-6.1 2.1-11.8 5.3-16.8 9.5-4.6 3.9-7 9.7-6.5 15.6z" style="fill:#fff"/></svg>
